<svg width="20" height="16" viewBox="0 0 20 16" fill="none" xmlns="http://www.w3.org/2000/svg">
<path d="M19.1666 0.499987C18.3686 1.06289 17.485 1.49341 16.5499 1.77499C16.048 1.19791 15.381 0.788897 14.6391 0.603259C13.8972 0.417621 13.1162 0.464317 12.4017 0.737032C11.6871 1.00975 11.0736 1.49532 10.6441 2.12808C10.2145 2.76085 9.98967 3.51027 9.99992 4.27499V5.10832C8.53545 5.14629 7.08431 4.8215 5.77576 4.16286C4.4672 3.50422 3.34185 2.53218 2.49992 1.33332C2.49992 1.33332 -0.833415 8.83332 6.66658 12.1667C4.95036 13.3316 2.90588 13.9158 0.833252 13.8333C8.33325 18 17.4999 13.8333 17.4999 4.24999C17.4991 4.01787 17.4768 3.78632 17.4333 3.55832C18.2838 2.71957 18.8839 1.66058 19.1666 0.499987Z" fill="#41A0E4" stroke="#41A0E4" stroke-linecap="round" stroke-linejoin="round"/>
</svg>
